<mxfile host="app.diagrams.net" modified="2023-12-11T10:03:50.264Z" agent="Mozilla/5.0 (Windows NT 10.0; Win64; x64) AppleWebKit/537.36 (KHTML, like Gecko) Chrome/119.0.0.0 Safari/537.36" etag="DWM1LZ2rhYd3BazJuEv0" version="22.1.7" type="device">
  <diagram name="Страница — 1" id="F5A7ZEqXu6gPI8JQatVl">
    <mxGraphModel dx="2784" dy="815" grid="1" gridSize="10" guides="1" tooltips="1" connect="1" arrows="1" fold="1" page="1" pageScale="1" pageWidth="1169" pageHeight="827" math="0" shadow="0">
      <root>
        <mxCell id="0" />
        <mxCell id="1" parent="0" />
        <mxCell id="K-vwXbusH0XzD3bVzh5H-9" style="edgeStyle=orthogonalEdgeStyle;rounded=0;orthogonalLoop=1;jettySize=auto;html=1;exitX=1;exitY=0.5;exitDx=0;exitDy=0;entryX=0;entryY=0.5;entryDx=0;entryDy=0;" edge="1" parent="1" source="xNc3krinNmuFDMtbia4S-1" target="xNc3krinNmuFDMtbia4S-5">
          <mxGeometry relative="1" as="geometry" />
        </mxCell>
        <mxCell id="xNc3krinNmuFDMtbia4S-1" value="&lt;font style=&quot;font-size: 20px;&quot;&gt;Выполнение преобразования Фурье&lt;/font&gt;" style="rounded=0;whiteSpace=wrap;html=1;fontSize=20;" parent="1" vertex="1">
          <mxGeometry x="302" y="230" width="223" height="130" as="geometry" />
        </mxCell>
        <mxCell id="K-vwXbusH0XzD3bVzh5H-8" style="edgeStyle=orthogonalEdgeStyle;rounded=0;orthogonalLoop=1;jettySize=auto;html=1;exitX=1;exitY=0.5;exitDx=0;exitDy=0;entryX=0;entryY=0.5;entryDx=0;entryDy=0;" edge="1" parent="1" source="xNc3krinNmuFDMtbia4S-2" target="xNc3krinNmuFDMtbia4S-1">
          <mxGeometry relative="1" as="geometry" />
        </mxCell>
        <mxCell id="xNc3krinNmuFDMtbia4S-2" value="&lt;font style=&quot;font-size: 20px;&quot;&gt;Начало отсчета времени выполнения&lt;/font&gt;" style="rounded=0;whiteSpace=wrap;html=1;fontSize=20;" parent="1" vertex="1">
          <mxGeometry x="21" y="230" width="215" height="130" as="geometry" />
        </mxCell>
        <mxCell id="K-vwXbusH0XzD3bVzh5H-7" style="edgeStyle=orthogonalEdgeStyle;rounded=0;orthogonalLoop=1;jettySize=auto;html=1;exitX=1;exitY=0.5;exitDx=0;exitDy=0;entryX=0;entryY=0.5;entryDx=0;entryDy=0;" edge="1" parent="1" source="xNc3krinNmuFDMtbia4S-3" target="xNc3krinNmuFDMtbia4S-2">
          <mxGeometry relative="1" as="geometry" />
        </mxCell>
        <mxCell id="xNc3krinNmuFDMtbia4S-3" value="&lt;font style=&quot;font-size: 20px;&quot;&gt;Генерация тестовых данных&lt;/font&gt;" style="rounded=0;whiteSpace=wrap;html=1;fontSize=20;" parent="1" vertex="1">
          <mxGeometry x="-226" y="230" width="204" height="130" as="geometry" />
        </mxCell>
        <mxCell id="K-vwXbusH0XzD3bVzh5H-6" style="edgeStyle=orthogonalEdgeStyle;rounded=0;orthogonalLoop=1;jettySize=auto;html=1;exitX=1;exitY=0.5;exitDx=0;exitDy=0;entryX=0;entryY=0.5;entryDx=0;entryDy=0;" edge="1" parent="1" source="xNc3krinNmuFDMtbia4S-4" target="xNc3krinNmuFDMtbia4S-3">
          <mxGeometry relative="1" as="geometry" />
        </mxCell>
        <mxCell id="xNc3krinNmuFDMtbia4S-4" value="&lt;font style=&quot;font-size: 20px;&quot;&gt;Инициализация длины частоты&lt;/font&gt;" style="rounded=0;whiteSpace=wrap;html=1;fontSize=20;" parent="1" vertex="1">
          <mxGeometry x="-487" y="230" width="210" height="130" as="geometry" />
        </mxCell>
        <mxCell id="K-vwXbusH0XzD3bVzh5H-10" style="edgeStyle=orthogonalEdgeStyle;rounded=0;orthogonalLoop=1;jettySize=auto;html=1;exitX=1;exitY=0.5;exitDx=0;exitDy=0;entryX=0;entryY=0.5;entryDx=0;entryDy=0;" edge="1" parent="1" source="xNc3krinNmuFDMtbia4S-5" target="xNc3krinNmuFDMtbia4S-8">
          <mxGeometry relative="1" as="geometry" />
        </mxCell>
        <mxCell id="xNc3krinNmuFDMtbia4S-5" value="&lt;font style=&quot;font-size: 20px;&quot;&gt;Остановка таймера&lt;/font&gt;" style="rounded=0;whiteSpace=wrap;html=1;fontSize=20;" parent="1" vertex="1">
          <mxGeometry x="578" y="230" width="209" height="130" as="geometry" />
        </mxCell>
        <mxCell id="xNc3krinNmuFDMtbia4S-8" value="&lt;font style=&quot;font-size: 20px;&quot;&gt;Вывод времени, затраченного на выполнение алгоритма&lt;/font&gt;" style="rounded=0;whiteSpace=wrap;html=1;fontSize=20;" parent="1" vertex="1">
          <mxGeometry x="840" y="230" width="210" height="130" as="geometry" />
        </mxCell>
      </root>
    </mxGraphModel>
  </diagram>
</mxfile>
